<svg version="1.2" xmlns="http://www.w3.org/2000/svg" viewBox="0 0 165 85" width="165" height="85">
	<title>New Project</title>
	<style>
		.s0 { fill: #ffffff } 
		.s1 { fill: #000000 } 
	</style>
	<g id="Screenshot 2025-08-03 132957">
		<path id="Path 1" fill-rule="evenodd" class="s0" d="m5.4 0.3c-0.2 0-0.6 0.3-0.9 0.6-0.2 0.3-0.5 0.9-0.5 1.4-0.1 0.6 0 1 0.2 1.5 0.2 0.3 7 7.4 15 15.8 8 8.3 15.4 16.1 16.6 17.2 1.2 1.3 2.2 2.5 2.5 3.2 0.3 0.8 0.5 1.4 0.5 2.6 0 1.1-0.2 1.8-0.5 2.5-0.3 0.7-4.7 5.5-17 18.3-9.2 9.6-16.8 17.7-17.1 18-0.2 0.4-0.3 0.9-0.3 1.2 0 0.3 0.2 0.8 0.4 1.2 0.2 0.4 0.8 0.8 1.2 1 0.6 0.3 7.4 0.3 57.3 0.3 54.5-0.1 56.7-0.1 57.8-0.5 0.6-0.2 1.8-0.7 2.7-1.1 1.3-0.7 2-1.2 4.3-3.5 1.5-1.5 9.4-9.7 17.6-18.2 12.1-12.7 14.9-15.7 15.4-16.7 0.4-0.9 0.5-1.4 0.5-2.6 0-1.1-0.1-1.7-0.5-2.5-0.4-0.8-3.1-3.7-10.6-11.5-5.5-5.8-13.2-13.8-17.1-17.9-4-4.2-7.5-7.6-8.1-8-0.7-0.5-1.4-0.9-1.7-1.1-0.3-0.1-1.2-0.5-2-0.8l-1.5-0.5c-88.1-0.1-113.9 0-114.2 0.1z"/>
		<path id="Path 2" fill-rule="evenodd" class="s1" d="m10.5 4.7c0.3 0.4 7.1 7.5 15.1 15.8 7.9 8.3 14.7 15.5 15.1 15.9 0.4 0.5 0.9 1.4 1.2 2 0.3 0.6 0.6 1.8 0.8 2.6 0.2 1.2 0.2 1.8 0 3.1-0.2 0.8-0.5 2.1-0.8 2.7-0.3 0.6-0.8 1.5-1.2 2-0.4 0.4-7.5 7.9-15.8 16.6l-15.1 15.7c88.8 0 108 0 108.8-0.2 0.7-0.1 1.9-0.5 2.7-0.9 1.4-0.6 1.9-1.1 9.4-8.9 4.4-4.6 12.1-12.5 17-17.7 5-5.1 9.2-9.6 9.3-10 0.3-0.5 0.3-0.7 0.1-1.4-0.2-0.6-2-2.5-6.6-7.4-3.5-3.6-9.7-10.1-13.8-14.3-4.1-4.3-8.9-9.3-10.7-11.1-1.8-1.9-3.7-3.6-4.3-3.9-0.5-0.3-1.6-0.7-2.3-0.9-1.1-0.3-6.9-0.4-55.4-0.4h-54.1z"/>
	</g>
	<g id="Layer 1">
	</g>
</svg>