<svg version="1.2" xmlns="http://www.w3.org/2000/svg" viewBox="0 0 165 85" width="165" height="85">
	<title>New Project</title>
	<style>
		.s0 { fill: #ffffff } 
	</style>
	<g id="Layer 1">
		<g id="Screenshot 2025-07-25 143425">
			<path id="Path 1" fill-rule="evenodd" class="s0" d="m1.1 1c-0.3 0.4-0.5 0.9-0.5 1.2 0 0.2 8.3 8.8 18.5 18.9 10.1 10.2 18.7 19 18.9 19.5 0.3 0.6 0.5 1.4 0.5 1.9 0 0.5-0.2 1.4-0.5 1.9-0.2 0.5-8.8 9.3-18.9 19.5-10.2 10.2-18.5 18.7-18.5 18.9 0 0.3 0.2 0.8 0.5 1.2l0.6 0.7 121.6-0.2c2.8-1.4 6.6-4.9 21.7-19.9 10.2-10 18.9-18.9 19.4-19.7 0.5-0.8 0.9-1.7 0.9-2.4 0-0.6-0.4-1.6-0.9-2.4-0.5-0.8-9.2-9.6-19.3-19.7-15.4-15.2-18.8-18.4-20.2-19.1l-1.6-0.8-121.7-0.1z"/>
		</g>
	</g>
</svg>