<svg version="1.2" xmlns="http://www.w3.org/2000/svg" viewBox="0 0 512 512" width="512" height="512">
	<title>house-window (1)</title>
	<style>
		.s0 { fill: #ffffff } 
	</style>
	<g id="Layer 1">
		<path class="s0" d="m416 512h-320c-52.9 0-96-43.1-96-96v-212c0-32 15.8-61.7 42.3-79.6l160-108c32.6-22 74.8-22 107.4 0l160 108c26.5 17.9 42.3 47.6 42.3 79.6v212c0 52.9-43.1 96-96 96zm-160-490.8c-14.5 0-29.1 4.3-41.7 12.9l-160.1 108c-20.6 13.9-32.9 37-32.9 61.8v212.1c0 41.2 33.5 74.6 74.7 74.6h320c41.2 0 74.7-33.4 74.7-74.6v-212c0-24.9-12.3-48-32.9-61.9l-160-108c-12.7-8.5-27.3-12.9-41.8-12.9zm53.3 362.8h-106.6c-17.7 0-32-14.4-32-32v-106.7c0-17.6 14.3-32 32-32h106.6c17.7 0 32 14.4 32 32v106.7c0 17.6-14.3 32-32 32zm-106.6-149.3c-5.9 0-10.7 4.8-10.7 10.6v106.7c0 5.9 4.8 10.7 10.7 10.7h106.6c5.9 0 10.7-4.8 10.7-10.7v-106.7c0-5.8-4.8-10.6-10.7-10.6z"/>
	</g>
</svg>