<svg version="1.2" xmlns="http://www.w3.org/2000/svg" viewBox="0 0 512 512" width="512" height="512">
	<title>house-blank</title>
	<style>
		.s0 { fill: #ffffff } 
	</style>
	<g id="Layer 1">
		<path class="s0" d="m405.33 512h-298.66c-58.82 0-106.67-47.85-106.67-106.67v-197.88c0-35.52 17.58-68.59 47.02-88.43l149.31-100.78c36.25-24.45 83.09-24.45 119.34 0l149.33 100.78c29.42 19.84 47 52.88 47 88.43v197.88c0 58.82-47.85 106.67-106.67 106.67zm-149.33-469.4c-12.46 0-24.92 3.67-35.8 11.03l-149.33 100.76c-17.66 11.9-28.2 31.72-28.2 53.03v197.89c0 35.29 28.71 64 64 64h298.66c35.29 0 64-28.71 64-64v-197.86c0-21.32-10.54-41.16-28.18-53.04l-149.35-100.78c-10.88-7.36-23.34-11.03-35.8-11.03z"/>
	</g>
</svg>