<svg version="1.2" xmlns="http://www.w3.org/2000/svg" viewBox="0 0 24 24" width="24" height="24">
	<title>globe</title>
	<style>
		.s0 { fill: #ffffff } 
	</style>
	<g id="Layer 1">
		<path class="s0" d="m12 0q0 0 0 0 0 0 0 0 0 0 0 0c-6.6 0-12 5.4-12 12 0 6.6 5.4 12 12 12 6.6 0 12-5.4 12-12 0-6.6-5.4-12-12-12zm9.8 7h-4.8c-1.1-2.7-2.7-4.8-3.8-5.9 3.8 0.4 6.9 2.7 8.6 5.9zm-4.8 5c0 1.4-0.3 2.8-0.7 4h-8.6c-0.4-1.2-0.7-2.6-0.7-4 0-1.4 0.3-2.8 0.7-4h8.6c0.4 1.2 0.7 2.6 0.7 4zm-1.1 5c-1.3 2.8-3.1 5-3.9 5.8-0.8-0.8-2.6-3-3.9-5.8 0 0 7.8 0 7.8 0zm-7.8-10c1.3-2.8 3.1-5 3.9-5.8 0.8 0.8 2.6 3 3.9 5.8zm2.6-5.9c-1 1.1-2.7 3.2-3.7 5.9h-4.8c1.6-3.2 4.8-5.5 8.5-5.9zm-9 6.9h4.9c-0.4 1.2-0.6 2.6-0.6 4 0 1.4 0.2 2.8 0.6 4h-4.9c-0.5-1.2-0.7-2.6-0.7-4 0-1.4 0.2-2.8 0.7-4zm0.5 9h4.8c1.1 2.7 2.7 4.8 3.7 5.9-3.7-0.4-6.9-2.7-8.5-5.9zm11 5.9c1-1.1 2.7-3.2 3.7-5.9h4.8c-1.6 3.2-4.8 5.5-8.5 5.9zm9-6.9h-4.9c0.4-1.2 0.7-2.6 0.7-4 0-1.4-0.3-2.8-0.7-4h4.9c0.5 1.2 0.8 2.6 0.8 4 0 1.4-0.3 2.8-0.8 4z"/>
	</g>
</svg>