<svg version="1.2" xmlns="http://www.w3.org/2000/svg" viewBox="0 0 380 51" width="380" height="51">
	<title>New Project</title>
	<style>
		.s0 { fill: #ffffff } 
	</style>
	<g id="Layer 1">
		<g id="Screenshot 2025-07-25 154832">
			<path id="Path 3" fill-rule="evenodd" class="s0" d="m375.3 0.6c0.1 0.2-0.3 1.4-1 2.6-0.6 1.3-1.6 3.2-2.2 4.2-0.5 1-2 3.3-3.1 5-1.2 1.8-3.7 5.1-5.5 7.2-1.9 2.2-4.8 5.4-6.6 7.1-1.7 1.6-4.5 4.1-6.2 5.4-1.7 1.3-4.4 3.3-6.1 4.4-1.7 1.1-4.7 2.8-6.7 3.8-2 1-4.3 2.1-5.2 2.5-0.9 0.4-2.6 1.1-3.8 1.5-1.2 0.4-2.5 0.9-2.9 1.1-0.4 0.2-2.6 0.8-4.8 1.4-2.3 0.6-5.4 1.3-6.9 1.6-1.5 0.3-4.8 0.7-7.4 1-3.4 0.3-44.9 0.3-155.9 0.2l-151.3-0.1-0.1-49.1c291.1 0 375.6 0.1 375.7 0.2z"/>
		</g>
	</g>
</svg>