<svg version="1.2" xmlns="http://www.w3.org/2000/svg" viewBox="0 0 512 512" width="512" height="512">
	<title>interrogation (1)</title>
	<style>
		.s0 { fill: #ffffff } 
	</style>
	<g id="Layer 1">
		<path class="s0" d="m256 0c-103.54 0-196.89 62.37-236.51 158.03-39.63 95.66-17.72 205.77 55.49 278.99 73.22 73.21 183.33 95.12 278.99 55.49 95.66-39.62 158.03-132.97 158.03-236.51-0.04-33.61-6.68-66.88-19.56-97.92-12.88-31.05-31.74-59.25-55.5-83.02-23.77-23.76-51.97-42.62-83.02-55.5-31.04-12.88-64.31-19.52-97.92-19.56zm0 469.33c-86.29 0-164.07-51.97-197.09-131.69-33.02-79.72-14.77-171.48 46.24-232.49 61.01-61.01 152.77-79.26 232.49-46.24 79.72 33.02 131.69 110.8 131.69 197.09-0.03 28.01-5.57 55.73-16.3 81.6-10.73 25.87-26.45 49.38-46.25 69.18-19.8 19.8-43.31 35.52-69.18 46.25-25.87 10.73-53.59 16.27-81.6 16.3z"/>
		<path class="s0" d="m271.3 108.01c-12.31-2.24-24.95-1.75-37.04 1.44-12.1 3.18-23.34 8.99-32.94 17-9.6 8.01-17.32 18.04-22.62 29.36-5.3 11.33-8.04 23.69-8.03 36.19 0 5.66 2.24 11.08 6.25 15.08 4 4.01 9.42 6.25 15.08 6.25 5.66 0 11.08-2.24 15.08-6.25 4.01-4 6.25-9.42 6.25-15.08 0-6.28 1.38-12.48 4.04-18.16 2.67-5.68 6.56-10.71 11.39-14.71 4.83-4.01 10.48-6.9 16.56-8.48 6.08-1.57 12.43-1.78 18.59-0.61 4.2 0.81 8.24 2.24 12.01 4.24 3.77 2 7.23 4.55 10.25 7.57 3.02 3.01 5.58 6.45 7.6 10.22 2.01 3.76 3.45 7.81 4.28 11.99 0.83 4.4 0.97 8.89 0.41 13.33-0.56 4.44-1.82 8.76-3.72 12.8-1.91 4.05-4.44 7.77-7.5 11.03-3.06 3.26-6.61 6.02-10.53 8.18-6.49 3.76-12.46 8.38-17.73 13.72-5.28 5.34-9.82 11.37-13.5 17.91-3.68 6.54-6.47 13.55-8.3 20.83-1.82 7.29-2.67 14.78-2.51 22.29v15.85c0 5.66 2.24 11.08 6.25 15.08 4 4.01 9.42 6.25 15.08 6.25 5.66 0 11.08-2.24 15.08-6.25 4.01-4 6.25-9.42 6.25-15.08v-15.85c-0.13-3.7 0.22-7.39 1.05-11 0.83-3.6 2.13-7.08 3.86-10.35 1.74-3.27 3.89-6.29 6.41-9 2.52-2.7 5.39-5.07 8.52-7.03 15.46-8.49 27.91-21.55 35.63-37.41 7.73-15.85 10.35-33.7 7.52-51.11-2.84-17.4-11-33.5-23.36-46.08-12.36-12.58-28.31-21.02-45.66-24.16z"/>
		<path class="s0" d="m256 362.67c11.78 0 21.33 9.55 21.33 21.33 0 11.78-9.55 21.33-21.33 21.33-11.78 0-21.33-9.55-21.33-21.33 0-11.78 9.55-21.33 21.33-21.33z"/>
	</g>
</svg>