<svg version="1.2" xmlns="http://www.w3.org/2000/svg" viewBox="0 0 24 24" width="24" height="24">
	<title>interrogation</title>
	<style>
		.s0 { fill: #ffffff } 
	</style>
	<g id="Layer 1">
		<path class="s0" d="m24 12c0 6.6-5.4 12-12 12-6.6 0-12-5.4-12-12 0-6.6 5.4-12 12-12 6.6 0 12 5.4 12 12zm-1 0c0-6.1-4.9-11-11-11-6.1 0-11 4.9-11 11 0 6.1 4.9 11 11 11 6.1 0 11-4.9 11-11zm-10 6c0 0.6-0.4 1-1 1-0.6 0-1-0.4-1-1 0-0.6 0.4-1 1-1 0.6 0 1 0.4 1 1zm-0.1-12.9c-1.2-0.3-2.4 0-3.4 0.8-1 0.7-1.5 1.9-1.5 3.1 0 0.3 0.2 0.5 0.5 0.5 0.3 0 0.5-0.2 0.5-0.5 0-0.9 0.4-1.8 1.1-2.3 0.7-0.6 1.7-0.8 2.6-0.6 1.1 0.2 2 1.1 2.2 2.2 0.3 1.3-0.3 2.7-1.5 3.3-1.2 0.7-1.9 1.9-1.9 3.1v0.3c0 0.3 0.2 0.5 0.5 0.5 0.3 0 0.5-0.2 0.5-0.5v-0.3c0-0.9 0.5-1.7 1.4-2.2 1.6-0.9 2.4-2.7 2-4.4-0.3-1.5-1.5-2.7-3-3z"/>
	</g>
</svg>