<svg version="1.2" xmlns="http://www.w3.org/2000/svg" viewBox="0 0 24 24" width="24" height="24">
	<title>tutorial_icon</title>
	<style>
		.s0 { fill: #ffffff } 
	</style>
	<g id="Layer 1">
		<g>
			<path id="Layer copy" class="s0" d="m12 23c-7.2 0-11-4.2-11-11 0-7.2 3.9-11 11-11 7 0 10.9 3.9 11 11-0.1 7.3-3.8 11-11 11zm-9-11c0.1 6.1 3 9 9 9 6 0 8.9-2.9 9-9-0.1-5.9-3.1-9-9-9-5.9 0-8.9 3-9 9z"/>
			<path class="s0" d="m12 15c-0.6 0-1-0.4-1-1v-1.4c0-0.6 0.4-1 1-1 1.5 0 2.1-0.6 2.1-2.1 0-1.5-0.7-2.1-2.1-2.1-1.5 0-2.1 0.6-2.1 2.1 0 0.6-0.5 1-1 1-0.6 0-1-0.5-1-1 0-2.6 1.5-4.1 4.1-4.1 2.5 0 4.1 1.5 4.1 4.1 0 2.3-1.1 3.7-3.1 4v0.5c0 0.5-0.4 1-1 1z"/>
		</g>
		<path class="s0" d="m12 19c-0.6 0-1-0.4-1-1 0-0.6 0.4-1 1-1 0.6 0 1 0.4 1 1 0 0.6-0.4 1-1 1z"/>
	</g>
</svg>